<svg width="200" height="200" viewBox="0 0 200 200" fill="none" xmlns="http://www.w3.org/2000/svg">
<circle cx="100" cy="100" r="100" fill="#187FDE"/>
<path d="M83.7679 144.221C98.0521 150.065 110.281 147.197 116.232 144.221C119.479 142.893 133.276 136.105 137.334 118.25C140.439 104.588 138.146 100.395 138.146 99.5831C135.711 88.2207 123.861 75.3973 102.435 85.7858C101.136 86.3341 98.1063 86.0142 97.5653 85.7858C76.1389 75.3972 64.2895 88.2206 61.8545 99.583C61.8546 100.395 59.5612 104.588 62.6661 118.25C66.724 136.105 80.5216 142.893 83.7679 144.221Z" fill="white" stroke="white"/>
<path d="M100.001 76.0466C99.4603 67.9305 103.248 52.023 122.726 53.3216C124.025 74.0987 108.117 77.1287 100.001 76.0466Z" fill="white" stroke="white"/>
</svg>
