<svg width="302" height="250" viewBox="0 0 302 250" fill="none" xmlns="http://www.w3.org/2000/svg">
<g clip-path="url(#clip0)">
<path d="M0.382812 10C0.382812 4.47716 4.85996 0 10.3828 0H291.383C296.906 0 301.383 4.47715 301.383 10V250H0.382812V10Z" fill="#F3F9FD"/>
<path d="M288.383 212L282.383 219L300.383 233.5V221L288.383 212Z" fill="white" stroke="white"/>
<path d="M67.8828 39L65.3828 42.5C61.8828 36.3333 50.8828 23.8 34.8828 23C18.8828 22.2 7.88281 38.6667 4.38281 47V39.5C24.7828 3.49998 55.2161 24.1666 67.8828 39Z" fill="white" stroke="white"/>
<path d="M239.383 135L230.383 149C254.383 166 260.383 187 256.383 197C278.383 177 258.383 146.5 239.383 135Z" fill="white" stroke="white"/>
<path d="M87.3827 75.5C84.9827 65.5 90.3827 56.6667 93.3827 53.5C80.1827 75.9 106.216 99.5 120.883 108.5L118.383 111.5C107.883 107 90.3827 88 87.3827 75.5Z" fill="white"/>
<path d="M113.883 44.5C101.483 42.1 95.0495 50.8333 93.3828 55.5C94.9828 86.3 115.383 99.6667 125.383 102.5L149.883 64C143.049 58.5 126.283 46.9 113.883 44.5Z" fill="white"/>
<path d="M125.383 122L117.383 116L152.883 61.5L159.883 66.5L125.383 122Z" fill="white"/>
<path d="M124.784 103.102C96.9169 90.0248 92.153 65.1797 93.2545 54.3918C81.6297 77.7372 107.477 99.8924 121.853 108.052L124.784 103.102Z" fill="#DEF0FF" stroke="#DEF0FF"/>
<path d="M124.984 122.785L116.899 115.89L110.932 125.172L118.912 131.449L124.984 122.785Z" fill="#DEF0FF" stroke="#DEF0FF"/>
<path d="M118.817 112.384L113.356 120.944C99.8767 115.6 83.0192 86.6604 81.1484 79.3455C79.6518 73.4935 86.0942 62.8164 89.5024 58.2093C77.2208 80.6485 103.928 103.675 118.817 112.384Z" fill="#DEF0FF" stroke="#DEF0FF"/>
<path d="M119.523 131.345L111.543 125.068L109.624 128.574L116.993 134.955L119.523 131.345Z" fill="#A4D4FF" stroke="#A4D4FF"/>
<path d="M83.0295 68.2132C69.6633 85.7481 95.6866 113.132 111.438 124.45L113.968 120.84C78.036 92.8494 78.5742 74.0582 83.0295 68.2132Z" fill="#A4D4FF" stroke="#A4D4FF"/>
<path d="M288.283 210.816L282.211 219.479L277.915 216.393L283.987 207.729L288.283 210.816Z" fill="#DEF0FF" stroke="#DEF0FF"/>
<path d="M239.389 133.888L229.985 148.842L225.078 145.859L234.988 130.183L239.389 133.888Z" fill="#DEF0FF" stroke="#DEF0FF"/>
<path d="M196.762 190.103L188.991 185.062L217.604 138.86L221.289 142.05L225.584 145.137L196.762 190.103Z" fill="#DEF0FF" stroke="#DEF0FF"/>
<path d="M197.257 190.039L199.291 186.493C201.038 189.376 208.324 195.263 219.443 201.516C230.122 207.522 241.75 207.734 246.804 207.037C261.988 196.913 253.751 202.604 247.575 206.824C247.456 206.905 247.327 206.958 247.184 206.981C247.062 207 246.935 207.019 246.804 207.037C246.797 207.041 246.791 207.046 246.784 207.05C231.702 217.107 207.978 201.029 197.432 191.252C197.094 190.938 197.028 190.439 197.257 190.039Z" fill="#A4D4FF"/>
<path d="M199.291 186.493L197.257 190.039C197.028 190.439 197.094 190.938 197.432 191.252C207.978 201.029 231.702 217.107 246.784 207.05C261.995 196.908 253.753 202.602 247.575 206.824C247.456 206.905 247.327 206.958 247.184 206.981C242.355 207.741 230.4 207.678 219.443 201.516C208.324 195.263 201.038 189.376 199.291 186.493Z" stroke="#A4D4FF"/>
<path d="M195.892 189.539L189.895 185.648C189.407 185.332 188.753 185.497 188.473 186.007L187.497 187.792C187.254 188.235 187.38 188.789 187.79 189.084L193.41 193.122C193.862 193.447 194.493 193.34 194.812 192.884L196.167 190.952C196.492 190.488 196.367 189.847 195.892 189.539Z" fill="#A4D4FF" stroke="#A4D4FF"/>
<rect width="32.226" height="2.50827" rx="1.25413" transform="matrix(-0.989253 0.146215 -0.14671 -0.98918 293.438 110.091)" fill="black"/>
<rect width="22.6251" height="2.49313" rx="1.24657" transform="matrix(-0.55957 0.828783 -0.822138 -0.569289 267.304 85.9597)" fill="black"/>
<rect width="14.6365" height="2.47895" rx="1.23947" transform="matrix(0.153263 0.988185 -0.988238 0.152925 240.473 83.493)" fill="black"/>
<path d="M285.247 215.148L282.211 219.479L317.102 247.265L323.718 245.506L285.247 215.148Z" fill="#EBF6FF" stroke="#EBF6FF"/>
<path d="M119.429 112.28L127.409 118.557" stroke="#187FDE"/>
<path d="M109.013 128.678L111.438 124.45L152.805 60.8165L160.681 66.4756L116.993 134.955L109.013 128.678Z" stroke="#187FDE"/>
<g filter="url(#filter0_f)">
<path d="M63.4507 45.46C55.4036 32.6214 33.7186 13.9997 11.3556 42.2216C4.38927 55.4896 -10.6604 82.8512 -15.1283 86.1541C-20.7132 90.2828 -41.6397 104.013 -49.5428 72.2807C-48.9221 67.2989 -45.6948 54.9628 -37.7517 45.4725" stroke="#A4D4FF" stroke-width="2"/>
</g>
<path d="M98.8207 46.4501C89.7321 55.1173 81.3019 69.1426 79.0008 77.8021C72.8346 62.9046 65.4315 53.3416 62.0967 50.4923C61.8987 50.3232 61.8517 50.0346 61.9943 49.8166L69.2269 38.7547C70.9476 37.9243 76.48 42.0503 82.7063 44.0982C88.2528 45.9225 94.8914 44.82 98.8207 46.4501Z" fill="#187FDE" stroke="#187FDE"/>
<path d="M266.255 179.497C260.936 194.259 250.93 204.662 247.288 208.108C246.71 208.655 246.924 209.649 247.689 209.868C253.299 211.482 270.666 216.317 276.808 216.141C277.09 216.133 277.337 215.992 277.514 215.771C279.47 213.336 282.909 209.853 283.987 207.729C285.051 205.632 274.448 188.836 268.061 179.256C267.599 178.562 266.537 178.713 266.255 179.497Z" fill="#187FDE" stroke="#187FDE"/>
<rect width="31.9722" height="6.23316" rx="3.11658" transform="matrix(-0.563344 0.826223 -0.81953 -0.573036 84.0703 36.8635)" fill="#187FDE"/>
<rect width="10.3581" height="3.52562" rx="1.76281" transform="matrix(-0.563344 0.826223 -0.81953 -0.573037 82.1123 37.2891)" fill="#87C7FF"/>
<path d="M244.742 206.125C229.703 209.336 208.809 194.417 199.903 186.389L221.536 150.913C228.311 152.307 246.891 166.961 251.941 178.188C255.664 189.005 259.3 203.017 244.742 206.125Z" fill="#DEF0FF" stroke="#DEF0FF"/>
<rect width="38.3615" height="6.23209" rx="3.11605" transform="matrix(-0.551214 0.834364 -0.827822 -0.560991 92.8896 39.1085)" fill="#187FDE"/>
<rect width="18.4199" height="3.21584" rx="1.60792" transform="matrix(-0.551213 0.834365 -0.827822 -0.560991 90.8364 39.3139)" fill="#87C7FF"/>
<path d="M98.4096 41.0121C99.8496 41.9879 100.188 43.9828 99.1499 45.3771L87.9848 60.3752L78.1541 77.169C77.2751 78.6706 75.3261 79.1129 73.8866 78.1374V78.1374C72.5006 77.1982 72.1252 75.3044 73.0481 73.9074L94.233 41.8401C95.155 40.4444 97.025 40.0737 98.4096 41.0121V41.0121Z" fill="#187FDE"/>
<rect width="31.9541" height="5.12684" rx="2.56342" transform="matrix(0.602455 -0.798153 0.791017 0.611794 262.598 218.804)" fill="#187FDE"/>
<rect width="11.144" height="3.10421" rx="1.5521" transform="matrix(0.602456 -0.798152 0.791018 0.611793 275.358 203.437)" fill="#87C7FF"/>
<rect width="38.3397" height="4.7368" rx="2.3684" transform="matrix(0.590717 -0.806879 0.799869 0.600175 254.216 216.353)" fill="#187FDE"/>
<rect width="19.9495" height="3.13753" rx="1.56876" transform="matrix(0.590716 -0.806879 0.799868 0.600175 265.221 202.83)" fill="#87C7FF"/>
<path d="M249.469 214.696C248.206 213.749 247.965 211.935 248.938 210.692L260.589 195.801L270.451 179.146C271.433 177.487 273.645 177.099 275.132 178.325V178.325C276.423 179.39 276.674 181.284 275.706 182.648L253.38 214.086C252.476 215.358 250.716 215.632 249.469 214.696V214.696Z" fill="#187FDE"/>
<path d="M225.383 144.5L218.883 139.5L229.883 122L236.883 127L225.383 144.5Z" fill="white"/>
<path d="M260.955 198.597C260.238 198.105 260.05 197.12 260.535 196.399L265.818 188.556L271.606 179.83C272.086 179.106 273.059 178.916 273.776 179.408V179.408C274.491 179.898 274.68 180.88 274.199 181.601L263.122 198.179C262.64 198.9 261.67 199.087 260.955 198.597V198.597Z" fill="#87C7FF"/>
<path d="M179.516 141.039L173.115 150.829C172.834 151.259 172.924 151.833 173.324 152.155L196.47 170.816C196.949 171.202 197.66 171.069 197.966 170.535L204.221 159.628C204.471 159.193 204.359 158.64 203.96 158.336L180.96 140.791C180.498 140.439 179.834 140.553 179.516 141.039Z" fill="#87C7FF"/>
<path d="M195.498 116.754L188.676 127.817C188.406 128.254 188.512 128.825 188.921 129.137L211.847 146.624C212.327 146.991 213.02 146.851 213.321 146.327L219.599 135.381C219.846 134.951 219.739 134.404 219.349 134.097L196.968 116.492C196.498 116.123 195.812 116.245 195.498 116.754Z" fill="#87C7FF"/>
<path d="M220.343 136.486L227.608 142.249M213.321 146.327L219.599 135.381C219.846 134.951 219.739 134.404 219.349 134.097L196.968 116.492C196.498 116.123 195.812 116.245 195.498 116.754L188.676 127.817C188.406 128.254 188.512 128.825 188.921 129.137L211.847 146.624C212.327 146.991 213.02 146.851 213.321 146.327ZM197.966 170.535L204.221 159.628C204.471 159.193 204.359 158.64 203.96 158.336L180.96 140.791C180.498 140.439 179.834 140.553 179.516 141.039L173.115 150.829C172.834 151.259 172.924 151.833 173.324 152.155L196.47 170.816C196.949 171.202 197.66 171.069 197.966 170.535Z" stroke="#187FDE"/>
<ellipse rx="11.3881" ry="13.4874" transform="matrix(0.793523 -0.60854 0.600841 0.799369 114.779 67.8044)" fill="#187FDE"/>
<ellipse rx="11.3881" ry="13.4874" transform="matrix(0.793523 -0.60854 0.600841 0.799369 232.715 186.285)" fill="#187FDE"/>
<ellipse rx="3.03757" ry="3.59753" transform="matrix(0.793522 -0.608541 0.60084 0.799369 231.938 186.267)" fill="white"/>
<ellipse rx="3.03757" ry="3.59753" transform="matrix(0.793522 -0.608541 0.600839 0.79937 114.96 67.4729)" fill="white"/>
<rect x="57.5371" y="147.596" width="32.2258" height="2.50827" rx="1.25414" transform="rotate(-9.63783 57.5371 147.596)" fill="black"/>
<rect width="22.6307" height="2.49251" rx="1.24625" transform="matrix(0.541872 -0.840461 0.834038 0.551707 84.1689 171.164)" fill="black"/>
<rect width="14.6365" height="2.47891" rx="1.23946" transform="matrix(-0.17395 -0.984754 0.984727 -0.174106 111.044 173.054)" fill="black"/>
<ellipse cx="182.797" cy="148.587" rx="1.85918" ry="1.88123" transform="rotate(-9.63783 182.797 148.587)" fill="#187FDE"/>
<ellipse cx="198.779" cy="124.247" rx="1.85919" ry="1.88121" transform="rotate(-9.63783 198.779 124.247)" fill="#187FDE"/>
<path d="M173.129 151.181L175.761 147.873L199.286 167.048L198.185 168.871L197.278 170.934L173.129 151.181Z" fill="#187FDE"/>
<path d="M188.799 128.166L191.431 124.859L214.956 144.033L213.855 145.857L212.948 147.919L188.799 128.166Z" fill="#187FDE"/>
<path d="M175.15 147.977L199.197 167.427" stroke="#187FDE"/>
<path d="M190.731 124.978L214.568 143.192" stroke="#187FDE"/>
<path d="M225.794 146.374C239.869 155.22 265.394 178.194 254.899 199.312" stroke="#187FDE"/>
<path d="M196.609 190.765L194.905 193.439C194.596 193.923 193.944 194.049 193.478 193.714L187.229 189.224C186.798 188.914 186.684 188.322 186.969 187.874L229.074 121.806C229.383 121.321 230.035 121.196 230.501 121.531L236.75 126.021C237.181 126.331 237.295 126.923 237.01 127.371L235.037 130.467M196.609 190.765C206.594 199.882 232.588 217.772 246.784 207.05C268.513 190.639 272.151 163.943 257.918 150.459C246.531 139.672 238.158 132.808 235.037 130.467M196.609 190.765L235.037 130.467" stroke="#187FDE"/>
<path d="M324.434 246.02L317.102 247.265L277.915 216.393L280.951 212.061M324.434 246.02L331.766 244.775L283.987 207.729L280.951 212.061M324.434 246.02L280.951 212.061" stroke="#187FDE"/>
<path d="M121.866 108.123L150.171 63.8081C149.35 62.6754 125.408 43.8434 110.324 43.8606C106.292 43.8652 102.44 44.9302 98.8952 46.8882M121.866 108.123L111.438 124.45C99.6099 116.494 76.6266 96.3963 79.3157 79.6568C81.7784 64.3263 89.181 52.254 98.8952 46.8882M121.866 108.123C104.601 97.762 75.8358 71.0093 98.8952 46.8882" stroke="#187FDE"/>
<path d="M97.5545 41.9355C98.2512 42.4257 98.4236 43.3935 97.9391 44.0941L92.6053 51.8069L86.7598 60.3874C86.2802 61.0914 85.3245 61.2652 84.6278 60.775V60.775C83.9327 60.2859 83.7591 59.3214 84.2399 58.6206L95.4257 42.3187C95.9065 41.6181 96.8596 41.4465 97.5545 41.9355V41.9355Z" fill="#87C7FF"/>
<path d="M-50.5168 81.3509C-56.0914 67.0323 -45.844 50.8751 -38.7824 43.1034L-32.2149 52.165C-43.4803 65.7813 -40.5564 75.8432 -37.6862 79.1721C-15.7495 104.705 -3.59361 28.2228 23.3757 20.4628C44.3517 14.4273 62.2519 29.7624 68.6159 38.8585L62.1429 48.8624C22.3174 -7.97957 -0.197085 77.8366 -13.4862 88.4196C-25.6681 98.1208 -44.0972 97.8398 -50.5168 81.3509Z" stroke="#187FDE"/>
<path d="M-36.0049 48.3561C-43.1651 56.7806 -54.028 76.2227 -40.1975 86.595C-22.9093 99.5605 -9.47628 75.0176 -1.90526 60.3748C5.66576 45.7321 14.6119 20.679 39.805 24.6694C43.1617 25.2011 49.4946 26.2042 64.9687 43.2941" stroke="#187FDE"/>
</g>
<defs>
<filter id="filter0_f" x="-54.5581" y="22.4522" width="122.856" height="75.2132" filterUnits="userSpaceOnUse" color-interpolation-filters="sRGB">
<feFlood flood-opacity="0" result="BackgroundImageFix"/>
<feBlend mode="normal" in="SourceGraphic" in2="BackgroundImageFix" result="shape"/>
<feGaussianBlur stdDeviation="2" result="effect1_foregroundBlur"/>
</filter>
<clipPath id="clip0">
<rect width="301" height="250" fill="white" transform="translate(0.382812)"/>
</clipPath>
</defs>
</svg>
